# xmcd CD database file
#
# Track frame offsets:
#	150
#	21156
#	28929
#	36701
#	50866
#	60202
#	74026
#	83876
#	91429
#	103782
#	113041
#	122564
#	136291
#	144625
#	157009
#	168452
#	177163
#	185044
#	199591
#	215811
#	228964
#	235950
#	246305
#	294475
#
# Disc length: 4428 seconds
#
# Revision: 0
# Processed by: cddbd v1.5.1PL0 Copyright (c) Steve Scherf et al.
# Submitted via: CDex 1.51
#
DISCID=72114a18
DTITLE=GoodNavigate - 木漏れ日の並木道 〜移り変わる季節の中で〜 初回限定版特典 DRAMA＆SOUNDTRACKS
DYEAR=2004
DGENRE=Game
TTITLE0=佐藤裕美&YURIA/Stay -木漏れ日の中で- Full Ver.
TTITLE1=佐藤裕美/Stay -木漏れ日の中で- 佐藤裕美 Ver.
TTITLE2=YURIA/Stay -木漏れ日の中で- YURIA Ver.
TTITLE3=春の主題 -qentle-
TTITLE4=春の主題 -fun-
TTITLE5=春の主題 -quiet-
TTITLE6=春の主題 -scredness-
TTITLE7=Theme for Sakura
TTITLE8=Theme for Himeno
TTITLE9=Theme for Shion
TTITLE10=Theme for Ibuki
TTITLE11=Theme for Kaede
TTITLE12=Theme for Momiji
TTITLE13=Theme for Mirai
TTITLE14=Recollection
TTITLE15=Confession -あなたに-
TTITLE16=楽しい日々
TTITLE17=Sad tune for KN
TTITLE18=あなたに包まれて
TTITLE19=曖昧な愛嬌
TTITLE20=REN/Stay -木漏れ日の中で-(オリジナル)
TTITLE21=Mayumi/Warming -心の中の風-
TTITLE22=ドラマCD1 『春風』
TTITLE23=ドラマCD2 『湯煙』
EXTD=YEAR: 2004
EXTT0=
EXTT1=
EXTT2=
EXTT3=
EXTT4=
EXTT5=
EXTT6=
EXTT7=
EXTT8=
EXTT9=
EXTT10=
EXTT11=
EXTT12=
EXTT13=
EXTT14=
EXTT15=
EXTT16=
EXTT17=
EXTT18=
EXTT19=
EXTT20=
EXTT21=
EXTT22=
EXTT23=
PLAYORDER=
